<?xml version="1.0" standalone="no"?>
<!DOCTYPE svg PUBLIC "-//W3C//DTD SVG 20010904//EN"
 "http://www.w3.org/TR/2001/REC-SVG-20010904/DTD/svg10.dtd">
<svg version="1.0" xmlns="http://www.w3.org/2000/svg"
 width="47.000000pt" height="50.000000pt" viewBox="0 0 47.000000 50.000000"
 preserveAspectRatio="xMidYMid meet">

<g transform="translate(0.000000,50.000000) scale(0.100000,-0.100000)"
fill="#000000" stroke="none">
<path d="M33 493 c-27 -10 -11 -21 22 -16 63 10 100 -51 55 -92 -20 -19 -29
-8 -9 12 15 15 7 57 -13 61 -9 2 -18 -5 -21 -15 -4 -17 -5 -17 -6 0 -1 22 -18
22 -30 -1 -7 -13 -6 -27 4 -45 11 -22 11 -25 -1 -20 -8 3 -16 15 -19 27 -11
53 -14 58 -9 16 6 -60 6 -74 -2 -148 -8 -78 11 -133 63 -185 52 -52 108 -71
191 -64 53 4 71 2 85 -11 16 -14 19 -14 27 -2 5 8 7 22 5 31 -3 9 1 21 8 27
11 9 19 6 37 -13 45 -48 63 -28 34 40 -11 27 -12 41 -5 48 17 17 13 152 -5
195 -20 49 -70 100 -119 123 -43 20 -128 25 -168 10 -20 -8 -29 -6 -43 10 -16
18 -53 24 -81 12z m261 -35 c62 -19 130 -91 146 -156 15 -63 8 -94 -24 -116
-40 -26 -57 -12 -51 43 7 57 -15 106 -64 138 -116 78 -264 -66 -191 -185 39
-64 118 -89 180 -57 27 14 60 12 60 -5 0 -11 -26 -31 -33 -24 -3 3 -15 3 -27
-1 -20 -6 -21 -8 -4 -26 21 -24 16 -29 -34 -36 -90 -12 -195 55 -227 146 -18
51 -19 82 -4 134 8 31 14 37 38 37 41 0 81 35 81 70 0 22 6 31 28 38 38 14 78
14 126 0z m-230 -48 c6 0 18 6 25 13 11 10 12 9 7 -3 -3 -8 -9 -23 -12 -32 -8
-22 -24 -24 -24 -3 0 8 -4 15 -10 15 -5 0 -9 10 -9 23 1 16 2 18 6 5 2 -10 10
-18 17 -18z m116 -74 c-5 -15 -10 -38 -10 -51 0 -13 -6 -26 -12 -29 -10 -5
-10 -7 0 -12 6 -3 12 -16 12 -29 0 -13 5 -36 10 -51 16 -40 5 -41 -35 -1 -35
35 -45 71 -22 81 10 5 10 7 0 12 -23 10 -13 46 22 81 40 40 51 39 35 -1z m78
7 c6 -16 14 -40 18 -55 6 -28 6 -28 -46 -28 l-52 0 7 33 c13 57 24 77 44 77
11 0 23 -11 29 -27z m71 -19 c31 -39 28 -64 -8 -64 -25 0 -29 4 -35 39 -3 22
-9 47 -12 56 -6 15 -4 16 14 6 11 -6 30 -23 41 -37z m-53 -111 c-13 -57 -28
-83 -47 -83 -20 0 -31 20 -44 78 l-7 32 52 0 c52 0 52 0 46 -27z m72 5 c-2
-14 -11 -22 -25 -23 -31 -2 -38 -12 -24 -29 10 -12 8 -17 -10 -26 -19 -11 -21
-10 -15 5 3 9 9 34 12 56 6 35 9 39 36 39 24 0 29 -4 26 -22z m7 -48 c14 -5
23 -14 20 -20 -9 -15 -20 -12 -46 10 -26 21 -15 26 26 10z m95 3 c-1 -19 -98
-116 -108 -109 -8 5 3 25 35 62 41 48 74 68 73 47z m-5 -93 c9 -16 12 -30 7
-30 -15 0 -44 38 -37 49 9 16 13 14 30 -19z m-109 -25 c15 -14 25 -27 22 -30
-2 -3 -17 9 -33 25 -35 36 -27 40 11 5z"/>
</g>
</svg>
