<?xml version="1.0" standalone="no"?>
<!DOCTYPE svg PUBLIC "-//W3C//DTD SVG 20010904//EN"
 "http://www.w3.org/TR/2001/REC-SVG-20010904/DTD/svg10.dtd">
<svg version="1.0" xmlns="http://www.w3.org/2000/svg"
 width="50.000000pt" height="50.000000pt" viewBox="0 0 50.000000 50.000000"
 preserveAspectRatio="xMidYMid meet">

<g transform="translate(0.000000,50.000000) scale(0.100000,-0.100000)"
fill="#000000" stroke="none">
<path d="M40 425 c0 -48 4 -75 11 -75 6 0 13 10 16 21 l6 22 17 -23 c24 -32
47 -17 25 16 -14 22 -14 27 0 46 8 13 15 26 15 30 0 17 -34 38 -61 38 l-29 0
0 -75z m52 30 c0 -5 -5 -11 -11 -13 -6 -2 -11 4 -11 13 0 9 5 15 11 13 6 -2
11 -8 11 -13z"/>
<path d="M160 425 l0 -75 29 0 c36 0 51 19 22 27 -12 3 -21 11 -21 18 0 7 9
15 21 18 23 6 17 27 -7 27 -22 0 -17 27 7 33 29 8 14 27 -22 27 l-29 0 0 -75z"/>
<path d="M264 486 c-8 -22 0 -126 11 -129 6 -1 12 11 13 28 l4 30 13 -33 c23
-53 35 -38 35 43 0 75 -12 97 -29 53 l-8 -23 -7 23 c-8 25 -24 29 -32 8z"/>
<path d="M375 491 c-3 -6 1 -13 9 -18 10 -5 16 -28 18 -63 4 -71 22 -67 26 5
2 40 7 55 17 55 8 0 15 7 15 15 0 11 -11 15 -39 15 -22 0 -42 -4 -46 -9z"/>
<path d="M122 293 c-7 -3 -19 -18 -27 -34 l-16 -29 171 0 171 0 -15 29 c-9 16
-23 31 -31 35 -20 7 -234 7 -253 -1z"/>
<path d="M23 145 l-3 -55 230 0 230 0 -3 55 -2 55 -225 0 -225 0 -2 -55z m117
0 c0 -10 -10 -15 -30 -15 -20 0 -30 5 -30 15 0 10 10 15 30 15 20 0 30 -5 30
-15z m180 0 c0 -12 -14 -15 -70 -15 -56 0 -70 3 -70 15 0 12 14 15 70 15 56 0
70 -3 70 -15z m100 0 c0 -16 -45 -21 -54 -6 -8 12 4 21 31 21 14 0 23 -6 23
-15z"/>
<path d="M20 42 c0 -26 20 -42 51 -42 43 0 59 10 59 36 0 22 -4 24 -55 24 -46
0 -55 -3 -55 -18z"/>
<path d="M370 46 c0 -33 13 -46 45 -46 49 0 65 9 65 36 0 22 -4 24 -55 24 -41
0 -55 -4 -55 -14z"/>
</g>
</svg>
