<?xml version="1.0" standalone="no"?>
<!DOCTYPE svg PUBLIC "-//W3C//DTD SVG 20010904//EN"
 "http://www.w3.org/TR/2001/REC-SVG-20010904/DTD/svg10.dtd">
<svg version="1.0" xmlns="http://www.w3.org/2000/svg"
 width="50.000000pt" height="50.000000pt" viewBox="0 0 50.000000 50.000000"
 preserveAspectRatio="xMidYMid meet">

<g transform="translate(0.000000,50.000000) scale(0.100000,-0.100000)"
fill="#000000" stroke="none">
<path d="M57 493 c-4 -3 -7 -18 -7 -32 0 -18 -7 -30 -22 -36 -23 -10 -23 -14
-26 -204 -2 -134 1 -198 9 -207 17 -20 461 -20 478 0 8 9 11 73 9 207 -3 189
-4 194 -25 204 -14 6 -23 20 -25 40 -2 23 -9 31 -27 33 -26 4 -41 -12 -41 -45
0 -23 -2 -23 -130 -23 -121 0 -130 1 -130 19 0 34 -12 51 -34 51 -13 0 -26 -3
-29 -7z m41 -60 c-4 -66 -28 -70 -28 -4 0 39 4 51 16 51 12 0 14 -10 12 -47z
m332 -4 c0 -66 -24 -62 -28 4 -2 37 0 47 12 47 12 0 16 -12 16 -51z m-378 -31
c2 -18 10 -23 33 -23 23 0 31 5 33 23 3 22 6 22 132 22 126 0 129 0 132 -22 2
-18 10 -23 33 -23 24 0 31 5 33 23 7 44 27 16 30 -41 l3 -57 -231 0 -230 0 0
53 c0 30 3 57 7 60 12 13 22 7 25 -15z m428 -248 l0 -130 -230 0 -230 0 0 130
0 130 230 0 230 0 0 -130z"/>
<path d="M152 358 l3 -33 95 0 95 0 3 33 3 32 -101 0 -101 0 3 -32z m178 -3
c0 -12 -16 -15 -80 -15 -64 0 -80 3 -80 15 0 12 16 15 80 15 64 0 80 -3 80
-15z"/>
<path d="M50 230 c0 -29 2 -31 33 -28 27 2 32 7 32 28 0 21 -5 26 -32 28 -31
3 -33 1 -33 -28z m50 0 c0 -5 -7 -10 -15 -10 -8 0 -15 5 -15 10 0 6 7 10 15
10 8 0 15 -4 15 -10z"/>
<path d="M160 230 c0 -29 2 -31 33 -28 27 2 32 7 32 28 0 21 -5 26 -32 28 -31
3 -33 1 -33 -28z m50 0 c0 -5 -7 -10 -15 -10 -8 0 -15 5 -15 10 0 6 7 10 15
10 8 0 15 -4 15 -10z"/>
<path d="M274 245 c-11 -27 4 -45 36 -45 27 0 30 3 30 30 0 27 -3 30 -30 30
-18 0 -33 -6 -36 -15z m46 -15 c0 -5 -7 -10 -15 -10 -8 0 -15 5 -15 10 0 6 7
10 15 10 8 0 15 -4 15 -10z"/>
<path d="M384 245 c-11 -27 4 -45 36 -45 27 0 30 3 30 30 0 27 -3 30 -30 30
-18 0 -33 -6 -36 -15z m46 -15 c0 -5 -7 -10 -15 -10 -8 0 -15 5 -15 10 0 6 7
10 15 10 8 0 15 -4 15 -10z"/>
<path d="M57 174 c-4 -4 -7 -18 -7 -31 0 -20 5 -23 36 -23 33 0 35 2 32 28 -2
20 -9 28 -28 30 -14 2 -29 0 -33 -4z m43 -29 c0 -8 -7 -15 -15 -15 -8 0 -15 7
-15 15 0 8 7 15 15 15 8 0 15 -7 15 -15z"/>
<path d="M167 174 c-4 -4 -7 -18 -7 -31 0 -21 4 -24 33 -21 27 2 32 7 32 28 0
19 -6 26 -25 28 -14 2 -29 0 -33 -4z m43 -29 c0 -8 -7 -15 -15 -15 -8 0 -15 7
-15 15 0 8 7 15 15 15 8 0 15 -7 15 -15z"/>
<path d="M274 166 c-11 -28 4 -46 36 -46 28 0 31 3 28 28 -2 21 -9 28 -31 30
-18 2 -29 -2 -33 -12z m46 -21 c0 -8 -7 -15 -15 -15 -8 0 -15 7 -15 15 0 8 7
15 15 15 8 0 15 -7 15 -15z"/>
<path d="M387 174 c-4 -4 -7 -18 -7 -31 0 -20 5 -23 36 -23 33 0 35 2 32 28
-2 20 -9 28 -28 30 -14 2 -29 0 -33 -4z m43 -29 c0 -8 -7 -15 -15 -15 -8 0
-15 7 -15 15 0 8 7 15 15 15 8 0 15 -7 15 -15z"/>
<path d="M52 63 c3 -24 8 -28 33 -28 25 0 30 4 33 28 3 25 1 27 -33 27 -34 0
-36 -2 -33 -27z m48 -3 c0 -5 -7 -10 -15 -10 -8 0 -15 5 -15 10 0 6 7 10 15
10 8 0 15 -4 15 -10z"/>
<path d="M160 60 c0 -29 2 -31 33 -28 27 2 32 7 32 28 0 21 -5 26 -32 28 -31
3 -33 1 -33 -28z m50 0 c0 -5 -7 -10 -15 -10 -8 0 -15 5 -15 10 0 6 7 10 15
10 8 0 15 -4 15 -10z"/>
<path d="M320 75 c-7 -9 -21 -13 -31 -10 -23 8 -26 -13 -3 -22 10 -3 26 4 42
21 15 14 22 26 15 26 -6 0 -16 -7 -23 -15z"/>
<path d="M420 75 c-7 -9 -21 -13 -31 -10 -14 5 -17 2 -13 -9 9 -23 27 -20 54
9 13 14 19 25 13 25 -6 0 -16 -7 -23 -15z"/>
</g>
</svg>
