<?xml version="1.0" standalone="no"?>
<!DOCTYPE svg PUBLIC "-//W3C//DTD SVG 20010904//EN"
 "http://www.w3.org/TR/2001/REC-SVG-20010904/DTD/svg10.dtd">
<svg version="1.0" xmlns="http://www.w3.org/2000/svg"
 width="50.000000pt" height="50.000000pt" viewBox="0 0 50.000000 50.000000"
 preserveAspectRatio="xMidYMid meet">

<g transform="translate(0.000000,50.000000) scale(0.100000,-0.100000)"
fill="#000000" stroke="none">
<path d="M100 481 c0 -14 -8 -21 -27 -23 -26 -3 -28 -7 -31 -55 -3 -45 -6 -53
-23 -53 -10 0 -19 -7 -19 -15 0 -13 34 -15 250 -15 216 0 250 2 250 15 0 10
-10 15 -30 15 l-30 0 0 70 0 70 -40 0 c-23 0 -42 -6 -47 -14 -4 -8 -19 -16
-33 -18 -23 -3 -25 -8 -28 -55 -3 -45 -6 -53 -23 -53 -16 0 -19 7 -19 55 0 54
0 55 -30 55 -23 0 -30 4 -30 20 0 17 -7 20 -45 20 -38 0 -45 -3 -45 -19z m60
-71 c0 -47 -3 -60 -15 -60 -12 0 -15 13 -15 60 0 47 3 60 15 60 12 0 15 -13
15 -60z m250 -5 c0 -42 -3 -55 -15 -55 -12 0 -15 13 -15 55 0 42 3 55 15 55
12 0 15 -13 15 -55z m-310 -16 c0 -28 -4 -39 -12 -37 -24 8 -22 78 2 78 5 0
10 -18 10 -41z m120 1 c0 -29 -4 -40 -15 -40 -11 0 -15 11 -15 40 0 29 4 40
15 40 11 0 15 -11 15 -40z m130 -1 c0 -28 -4 -39 -12 -37 -24 8 -22 78 2 78 5
0 10 -18 10 -41z"/>
<path d="M72 268 c-17 -17 -15 -57 3 -64 8 -4 15 -15 15 -25 0 -10 -7 -19 -15
-19 -8 0 -15 -7 -15 -15 0 -12 16 -15 85 -15 l85 0 0 -50 c0 -43 -3 -50 -20
-50 -11 0 -20 -7 -20 -15 0 -12 13 -15 60 -15 47 0 60 3 60 15 0 8 -9 15 -20
15 -17 0 -20 7 -20 50 l0 50 85 0 c69 0 85 3 85 15 0 8 -7 15 -15 15 -12 0
-15 13 -15 60 l0 60 -59 0 c-67 0 -86 -14 -83 -63 2 -37 -11 -63 -27 -53 -6 4
-11 18 -11 32 0 13 -4 24 -10 24 -5 0 -10 14 -10 30 l0 30 -63 0 c-36 0 -68
-5 -75 -12z m108 -33 c0 -11 -12 -15 -45 -15 -33 0 -45 4 -45 15 0 11 12 15
45 15 33 0 45 -4 45 -15z m200 0 c0 -11 -11 -15 -39 -15 -38 0 -57 10 -44 24
3 3 24 6 45 6 27 0 38 -4 38 -15z m-172 -57 c-3 -7 -23 -14 -46 -16 -33 -2
-42 0 -42 12 0 12 11 16 46 16 32 0 44 -4 42 -12z m172 -3 c0 -11 -11 -15 -39
-15 -38 0 -57 10 -44 24 3 3 24 6 45 6 27 0 38 -4 38 -15z"/>
<path d="M0 140 l0 -80 30 0 c20 0 30 -5 30 -15 0 -10 -10 -15 -30 -15 -20 0
-30 -5 -30 -15 0 -12 13 -15 60 -15 47 0 60 3 60 15 0 8 -7 15 -15 15 -8 0
-15 7 -15 15 0 8 7 15 15 15 8 0 15 7 15 15 0 11 -12 15 -45 15 l-45 0 0 65
c0 51 -3 65 -15 65 -12 0 -15 -16 -15 -80z"/>
<path d="M470 155 l0 -65 -45 0 c-33 0 -45 -4 -45 -15 0 -8 7 -15 15 -15 8 0
15 -7 15 -15 0 -8 -7 -15 -15 -15 -8 0 -15 -7 -15 -15 0 -12 13 -15 60 -15 47
0 60 3 60 15 0 10 -10 15 -30 15 -20 0 -30 5 -30 15 0 10 10 15 30 15 l30 0 0
80 c0 64 -3 80 -15 80 -12 0 -15 -14 -15 -65z"/>
</g>
</svg>
