<?xml version="1.0" encoding="UTF-8"?>
<svg version="1.1" xmlns="http://www.w3.org/2000/svg" width="50" height="50">
<path d="M0 0 C1.99954746 -0.04254356 4.00041636 -0.04080783 6 0 C7 1 7 1 7.11352539 4.96899414 C7.1133662 6.74105607 7.10766785 8.5131226 7.09765625 10.28515625 C7.0962413 11.21597519 7.09482635 12.14679413 7.09336853 13.1058197 C7.08775172 16.09141191 7.0751964 19.07693029 7.0625 22.0625 C7.05748716 24.08137913 7.05292388 26.10025943 7.04882812 28.11914062 C7.03777683 33.07945572 7.02050095 38.03971532 7 43 C3.56395235 44.71802382 -0.38438896 44.1196618 -4.1640625 44.09765625 C-5.07127045 44.0962413 -5.97847839 44.09482635 -6.91317749 44.09336853 C-9.81715155 44.08776096 -12.72104915 44.07520718 -15.625 44.0625 C-17.59114472 44.05748598 -19.55729065 44.0529229 -21.5234375 44.04882812 C-26.3489879 44.03778906 -31.17448097 44.02051935 -36 44 C-36 45.98 -36 47.96 -36 50 C-37.99954746 50.04254356 -40.00041636 50.04080783 -42 50 C-43 49 -43 49 -43.11352539 45.03100586 C-43.1133662 43.25894393 -43.10766785 41.4868774 -43.09765625 39.71484375 C-43.0962413 38.78402481 -43.09482635 37.85320587 -43.09336853 36.8941803 C-43.08775172 33.90858809 -43.0751964 30.92306971 -43.0625 27.9375 C-43.05748716 25.91862087 -43.05292388 23.89974057 -43.04882812 21.88085938 C-43.03777683 16.92054428 -43.02050095 11.96028468 -43 7 C-39.56395235 5.28197618 -35.61561104 5.8803382 -31.8359375 5.90234375 C-30.92872955 5.9037587 -30.02152161 5.90517365 -29.08682251 5.90663147 C-26.18284845 5.91223904 -23.27895085 5.92479282 -20.375 5.9375 C-18.40885528 5.94251402 -16.44270935 5.9470771 -14.4765625 5.95117188 C-9.6510121 5.96221094 -4.82551903 5.97948065 0 6 C0 4.02 0 2.04 0 0 Z M3 2 C3 12.89 3 23.78 3 35 C3.66 35 4.32 35 5 35 C5 24.44 5 13.88 5 3 C4.34 2.67 3.68 2.34 3 2 Z M-41 9 C-41 9.99 -41 10.98 -41 12 C-39.68 12.33 -38.36 12.66 -37 13 C-36.67 15.31 -36.34 17.62 -36 20 C-34.02 20.66 -32.04 21.32 -30 22 C-30 20.68 -30 19.36 -30 18 C-29.7018576 16.65835921 -29.37756808 15.32148827 -29 14 C-25.94736336 13.01879536 -24.05263664 13.01879536 -21 14 C-20.67 12.35 -20.34 10.7 -20 9 C-26.93 9 -33.86 9 -41 9 Z M-17 9 C-17.33 10.65 -17.66 12.3 -18 14 C-15.03 14.495 -15.03 14.495 -12 15 C-11.34 13.02 -10.68 11.04 -10 9 C-12.31 9 -14.62 9 -17 9 Z M-9 12 C-9 12.66 -9 13.32 -9 14 C-8.34 13.67 -7.68 13.34 -7 13 C-7.66 12.67 -8.32 12.34 -9 12 Z M-41 15 C-41 25.56 -41 36.12 -41 47 C-40.34 47.33 -39.68 47.66 -39 48 C-39 37.11 -39 26.22 -39 15 C-39.66 15 -40.32 15 -41 15 Z M-7 9 C-6.67 9.66 -6.34 10.32 -6 11 C-5.875 14.0625 -5.875 14.0625 -6 17 C-6.33 17.33 -6.66 17.66 -7 18 C-7.04080783 19.99958364 -7.04254356 22.00045254 -7 24 C-7.99 24 -8.98 24 -10 24 C-10 21.69 -10 19.38 -10 17 C-10.66 16.67 -11.32 16.34 -12 16 C-13.76462683 19.08809695 -14 20.23312136 -14 24 C-14.99 24 -15.98 24 -17 24 C-17.144375 23.236875 -17.28875 22.47375 -17.4375 21.6875 C-17.9632594 18.91827092 -17.9632594 18.91827092 -19 16 C-19.7425 16.020625 -20.485 16.04125 -21.25 16.0625 C-23.70462279 16.00671312 -25.66109261 15.6930096 -28 15 C-27.79375 16.11375 -27.5875 17.2275 -27.375 18.375 C-27.25125 19.57125 -27.1275 20.7675 -27 22 C-27.66 22.66 -28.32 23.32 -29 24 C-31.61580479 23.6730244 -33.64078137 23.17960932 -36 22 C-36 23.32 -36 24.64 -36 26 C-35.38125 26.2475 -34.7625 26.495 -34.125 26.75 C-31.64931313 28.20628639 -31.04874998 29.37812506 -30 32 C-29.649375 31.34 -29.29875 30.68 -28.9375 30 C-27 28 -27 28 -23.3125 27.75 C-22.219375 27.8325 -21.12625 27.915 -20 28 C-19.91995518 31.5219721 -19.95994298 34.61981469 -21 38 C-20.34 38 -19.68 38 -19 38 C-18.67 38.99 -18.34 39.98 -18 41 C-18 40.01 -18 39.02 -18 38 C-17.34 38 -16.68 38 -16 38 C-15.67 38.99 -15.34 39.98 -15 41 C-15 40.01 -15 39.02 -15 38 C-14.34 38 -13.68 38 -13 38 C-12.67 38.99 -12.34 39.98 -12 41 C-12 40.01 -12 39.02 -12 38 C-10.35 38 -8.7 38 -7 38 C-7.495 35.525 -7.495 35.525 -8 33 C-8.99 33.33 -9.98 33.66 -11 34 C-11 33.01 -11 32.02 -11 31 C-9.35 31.66 -7.7 32.32 -6 33 C-6 35.31 -6 37.62 -6 40 C-6.99 40.33 -7.98 40.66 -9 41 C-4.38 41 0.24 41 5 41 C5 40.01 5 39.02 5 38 C3.68 37.67 2.36 37.34 1 37 C0.67 27.76 0.34 18.52 0 9 C-2.31 9 -4.62 9 -7 9 Z M-36 29 C-36 31.64 -36 34.28 -36 37 C-34.68 36.67 -33.36 36.34 -32 36 C-32.66 33.69 -33.32 31.38 -34 29 C-34.66 29 -35.32 29 -36 29 Z M-23 30 C-23 30.99 -23 31.98 -23 33 C-23.99 33 -24.98 33 -26 33 C-26.33 32.34 -26.66 31.68 -27 31 C-26.67 32.65 -26.34 34.3 -26 36 C-25.01 36 -24.02 36 -23 36 C-22.67 34.02 -22.34 32.04 -22 30 C-22.33 30 -22.66 30 -23 30 Z M-30 34 C-30.2475 34.78375 -30.495 35.5675 -30.75 36.375 C-32 39 -32 39 -36 41 C-32.37 41 -28.74 41 -25 41 C-26.98 37.535 -26.98 37.535 -29 34 C-29.33 34 -29.66 34 -30 34 Z M-23 39 C-23.33 39.66 -23.66 40.32 -24 41 C-23.34 41 -22.68 41 -22 41 C-22.33 40.34 -22.66 39.68 -23 39 Z " fill="#000000" transform="translate(43,0)"/>
<path d="M0 0 C0.66 0 1.32 0 2 0 C2.1875 2.375 2.1875 2.375 2 5 C-1 7 -1 7 -4 7 C-4 6.34 -4 5.68 -4 5 C-3.01 4.67 -2.02 4.34 -1 4 C-0.26676204 1.98491642 -0.26676204 1.98491642 0 0 Z " fill="#000000" transform="translate(40,20)"/>
<path d="M0 0 C0.99 0 1.98 0 3 0 C2.67 0.99 2.34 1.98 2 3 C1.34 2.67 0.68 2.34 0 2 C0 1.34 0 0.68 0 0 Z " fill="#000000" transform="translate(26,29)"/>
<path d="M0 0 C0.66 0 1.32 0 2 0 C1.67 0.99 1.34 1.98 1 3 C0.34 2.34 -0.32 1.68 -1 1 C-0.67 0.67 -0.34 0.34 0 0 Z " fill="#000000" transform="translate(29,31)"/>
<path d="M0 0 C0.99 0.33 1.98 0.66 3 1 C2.01 1.33 1.02 1.66 0 2 C0 1.34 0 0.68 0 0 Z " fill="#000000" transform="translate(27,26)"/>
<path d="M0 0 C0.99 0 1.98 0 3 0 C3 0.66 3 1.32 3 2 C2.01 1.67 1.02 1.34 0 1 C0 0.67 0 0.34 0 0 Z " fill="#000000" transform="translate(29,25)"/>
<path d="M0 0 C0.66 0 1.32 0 2 0 C2 0.66 2 1.32 2 2 C1.34 2 0.68 2 0 2 C0 1.34 0 0.68 0 0 Z " fill="#000000" transform="translate(33,25)"/>
</svg>
